<?xml version="1.0" standalone="no"?>
<!DOCTYPE svg PUBLIC "-//W3C//DTD SVG 20010904//EN"
 "http://www.w3.org/TR/2001/REC-SVG-20010904/DTD/svg10.dtd">
<svg version="1.0" xmlns="http://www.w3.org/2000/svg"
 width="225.000000pt" height="225.000000pt" viewBox="0 0 225.000000 225.000000"
 preserveAspectRatio="xMidYMid meet">
<metadata>
Created by potrace 1.14, written by Peter Selinger 2001-2017
</metadata>
<g transform="translate(0.000000,225.000000) scale(0.100000,-0.100000)"
fill="#000000" stroke="none">
<path d="M775 2136 c-92 -41 -148 -163 -115 -250 l10 -26 -176 0 c-102 0 -183
-4 -195 -10 -18 -10 -19 -29 -19 -705 l0 -695 -123 0 c-152 0 -163 -5 -154
-77 12 -103 80 -198 175 -245 l47 -23 900 0 900 0 47 23 c60 30 119 89 149
150 l24 47 3 755 c2 704 1 756 -15 767 -11 9 -57 13 -138 13 -129 0 -160 -9
-153 -46 3 -17 14 -19 121 -22 l117 -3 0 -712 c-1 -569 -4 -720 -14 -750 -34
-95 -127 -158 -232 -158 -118 0 -225 88 -239 199 -11 83 25 77 -421 80 -219 1
-409 0 -420 -3 -27 -6 -38 -33 -23 -51 9 -11 83 -14 398 -14 l387 0 13 -49 c7
-28 30 -75 51 -105 l39 -56 -732 0 -733 0 -51 25 c-57 29 -96 74 -118 136 -8
23 -15 43 -15 45 0 2 148 4 329 4 291 0 330 2 335 16 8 21 8 20 -10 38 -13 13
-45 16 -195 16 l-179 0 0 670 0 670 179 0 c176 0 179 0 227 -27 59 -33 140
-37 193 -10 l35 17 102 -101 c92 -90 105 -99 123 -89 12 6 21 19 21 28 0 10
-36 53 -80 97 l-80 80 387 5 c373 5 388 6 391 24 9 44 -10 46 -407 46 l-376 0
0 79 c0 72 -3 83 -30 122 -41 58 -102 89 -174 89 -31 -1 -69 -7 -86 -14z"/>
<path d="M1312 1318 c-17 -17 -17 -349 0 -366 32 -32 161 2 220 57 33 30 41
45 45 83 7 64 -1 92 -42 137 -53 58 -196 116 -223 89z m166 -133 c44 -47 44
-93 1 -129 -17 -14 -43 -29 -57 -32 -15 -3 -33 -7 -39 -10 -10 -2 -13 25 -13
116 l0 120 38 -15 c20 -8 52 -31 70 -50z"/>
<path d="M607 1283 c-13 -12 -7 -51 9 -57 9 -3 31 -6 50 -6 l34 0 0 -129 c0
-138 7 -160 50 -146 19 6 20 14 20 140 l0 134 46 3 c54 3 77 26 55 52 -11 13
-36 16 -136 16 -67 0 -125 -3 -128 -7z"/>
<path d="M954 1271 c-63 -38 -93 -157 -60 -234 7 -18 28 -45 45 -62 27 -25 41
-30 81 -30 40 0 54 5 79 29 85 82 77 240 -15 297 -40 24 -90 24 -130 0z m96
-61 c25 -13 44 -79 36 -122 -15 -81 -93 -102 -122 -33 -40 96 14 193 86 155z"/>
<path d="M1720 1264 c-44 -37 -63 -81 -64 -144 -2 -132 107 -218 201 -160 70
42 98 166 56 247 -42 81 -132 108 -193 57z m119 -70 c32 -40 29 -126 -4 -159
-13 -14 -33 -25 -44 -25 -44 0 -82 91 -61 146 26 67 73 83 109 38z"/>
<path d="M922 818 c-16 -16 -15 -23 4 -42 13 -14 61 -16 373 -16 384 0 401 2
387 48 l-7 22 -373 0 c-276 0 -375 -3 -384 -12z"/>
<path d="M996 644 c-12 -12 -13 -20 -6 -35 10 -18 24 -19 261 -19 222 0 250 2
256 16 3 9 2 24 -4 33 -9 14 -42 16 -251 19 -208 2 -242 0 -256 -14z"/>
</g>
</svg>
